# xmcd
#
# Track frame offsets: 
#        150
#        14069
#        30466
#        49213
#        61835
#        73266
#        93234
#        106484
#        122055
#        140265
#        155579
#        170223
#        183980
#        196783
#        215567
#        229224
#        248676
#        265553
#        282141
#        304346
#        317469
#
# Disc length: 4419 seconds
#
# Revision: 0
# Processed by: cddbd v1.5.2PL0 Copyright (c) Steve Scherf et al.
# Submitted via: ExactAudioCopy v0.99pb5
#
DISCID=2d114115
DTITLE=Various Artist - The Blues Box [CD 2 of 7)
DYEAR=2009
DGENRE=Blues
TTITLE0=Speckled Red - The Dirty Dozen
TTITLE1=Speckled Red - I Had My Fun
TTITLE2=Speckled Red - Caldonia
TTITLE3=Speckled Red - Oh! Red
TTITLE4=Speckled Red - St. Louis Stomp
TTITLE5=Speckled Red - Milk Cow Blues
TTITLE6=Speckled Red - Dad's Piece
TTITLE7=Speckled Red - You've Got The Right String But The Wrong Yo Yo
TTITLE8=Speckled Red - Red's Own Blues
TTITLE9=Speckled Red - Uncle Sams Blues
TTITLE10=Speckled Red - It Feels So Good
TTITLE11=Speckled Red - How Long Blues
TTITLE12=Speckled Red - Tain't Nobody's Biznezz
TTITLE13=Sunnyland - Prison Bound Blues
TTITLE14=Sunnyland - Johnson Machine Gun Blues
TTITLE15=Sunnyland - Miss Ida B.
TTITLE16=Sunnyland - I Done You Wrong
TTITLE17=Sunnyland - Brown Skin Mama
TTITLE18=Sunnyland - Goin' Down Slow
TTITLE19=Sunnyland - Sunnyland's Boogie
TTITLE20=Sunnyland - One Room Country Shack
EXTD=
EXTT0=
EXTT1=
EXTT2=
EXTT3=
EXTT4=
EXTT5=
EXTT6=
EXTT7=
EXTT8=
EXTT9=
EXTT10=
EXTT11=
EXTT12=
EXTT13=
EXTT14=
EXTT15=
EXTT16=
EXTT17=
EXTT18=
EXTT19=
EXTT20=
PLAYORDER=
